<?xml version="1.0" standalone="no"?>
<!DOCTYPE svg PUBLIC "-//W3C//DTD SVG 20010904//EN"
 "http://www.w3.org/TR/2001/REC-SVG-20010904/DTD/svg10.dtd">
<svg version="1.0" xmlns="http://www.w3.org/2000/svg"
 width="649.000000pt" height="621.000000pt" viewBox="0 0 649.000000 621.000000"
 preserveAspectRatio="xMidYMid meet">
<metadata>
Created by potrace 1.16, written by Peter Selinger 2001-2019
</metadata>
<g transform="translate(0.000000,621.000000) scale(0.100000,-0.100000)"
fill="#000000" stroke="none">
<path d="M5191 5680 c-365 -317 -852 -759 -722 -654 25 20 201 174 211 184 3
3 59 53 125 110 98 85 365 324 609 542 22 20 39 37 36 38 -3 0 -120 -99 -259
-220z"/>
<path d="M5720 5689 c-52 -39 -194 -142 -316 -229 l-221 -158 -56 -1 c-63 0
-124 -22 -133 -46 -4 -9 2 -28 13 -43 l20 -27 -72 -55 c-116 -88 -299 -231
-569 -443 -274 -216 -373 -286 -493 -347 -114 -59 -200 -83 -279 -78 l-65 4
-88 88 c-69 68 -101 93 -138 105 l-48 16 -32 95 c-17 52 -47 152 -65 222 l-33
127 -5 -102 -5 -102 -20 55 -20 55 -5 -54 c-5 -58 -6 -59 -82 -86 -33 -11 -71
-39 -120 -87 -63 -61 -66 -64 -18 -26 90 74 131 98 164 98 33 0 56 -15 56 -37
0 -7 -7 -13 -15 -13 -8 0 -27 -19 -44 -43 -16 -24 -57 -69 -90 -99 -47 -44
-75 -61 -128 -78 -37 -12 -93 -37 -123 -55 -76 -45 -123 -58 -176 -50 -52 7
-78 26 -569 409 -319 248 -362 283 -548 429 -53 43 -97 76 -97 73 0 -2 106
-93 235 -201 293 -245 311 -269 53 -71 -57 44 -90 65 -74 48 32 -34 30 -48 -4
-37 -43 13 -546 360 -708 488 -116 91 -63 40 143 -138 113 -98 205 -182 205
-187 0 -14 -118 50 -205 110 -44 31 -135 97 -201 148 -106 79 -187 136 -129
89 11 -8 68 -56 127 -106 99 -84 126 -114 113 -127 -7 -7 -154 79 -279 165
l-110 75 65 -73 c110 -124 141 -181 104 -195 -20 -8 -88 37 -149 100 -56 57
-53 49 12 -37 24 -32 42 -61 38 -64 -6 -6 -123 79 -220 161 -99 84 -97 76 11
-38 57 -60 100 -112 97 -117 -9 -14 -46 -10 -94 11 -42 19 -38 13 60 -77 286
-264 321 -325 133 -234 -91 44 -227 121 -290 163 -58 39 -68 35 -13 -4 75 -54
288 -226 398 -321 95 -83 134 -128 120 -143 -12 -11 -173 72 -336 173 -57 35
4 -12 303 -237 171 -128 321 -243 334 -256 l24 -23 -26 -12 c-22 -10 -48 -9
-139 6 -62 10 -140 26 -173 36 -92 29 -89 22 10 -20 133 -56 355 -163 355
-171 0 -16 -54 -21 -285 -28 -214 -6 -230 -7 -150 -14 194 -17 390 -63 441
-104 17 -14 11 -15 -81 -10 -55 3 -116 8 -135 11 -55 8 121 -52 206 -70 83
-19 90 -32 28 -53 -58 -20 -334 -10 -437 16 -42 10 -77 18 -77 16 0 -9 74 -33
161 -54 130 -31 309 -37 469 -17 69 9 166 19 215 22 119 8 166 14 248 31 138
28 143 12 15 -44 -101 -43 -228 -87 -299 -102 -70 -15 229 -2 352 16 57 8 124
17 148 21 76 10 44 -18 -73 -66 -114 -45 -257 -80 -341 -82 l-50 -1 40 -9 c22
-5 105 -6 185 -2 202 10 234 5 185 -27 -62 -41 -458 -183 -728 -261 -42 -12
-75 -24 -73 -26 8 -9 787 206 829 229 10 5 23 8 29 6 6 -2 -20 -17 -58 -33
-38 -15 -141 -59 -229 -96 -88 -37 -204 -84 -257 -105 -54 -21 -96 -40 -93
-42 2 -2 66 16 142 41 181 59 415 127 436 127 9 0 17 -3 17 -7 -2 -25 -248
-167 -391 -227 -130 -53 -259 -77 -589 -109 -19 -2 -6 -5 30 -6 109 -2 409
-29 520 -46 116 -17 128 -24 450 -233 242 -158 277 -196 316 -349 30 -117 14
-111 -106 37 -124 152 -162 182 -507 403 -7 4 -13 6 -13 3 0 -3 37 -33 83 -67
146 -111 357 -299 336 -299 -4 0 -78 36 -165 79 -105 53 -151 80 -134 81 19 0
22 3 10 9 -32 19 -270 94 -385 121 -167 40 -478 91 -465 76 4 -3 130 -37 281
-75 152 -38 320 -81 375 -96 98 -27 219 -74 210 -82 -10 -10 -358 -1 -473 12
-207 25 -211 25 -143 10 66 -14 426 -58 580 -70 100 -9 195 -35 266 -76 48
-27 212 -194 201 -205 -8 -8 -55 19 -128 73 -72 55 -89 66 -89 60 0 -2 38 -34
85 -72 47 -37 85 -72 85 -77 0 -23 -44 -2 -185 89 l-100 65 60 -62 c149 -154
174 -174 238 -192 57 -15 68 -24 174 -130 65 -66 113 -123 113 -134 0 -10 -20
-50 -45 -88 -98 -148 -232 -379 -316 -541 -80 -154 -159 -327 -159 -343 0 -4
40 70 89 165 115 221 208 379 343 578 150 222 133 203 164 174 14 -13 37 -46
51 -74 41 -79 41 -149 0 -365 -62 -326 -58 -338 13 -50 44 175 55 203 73 197
21 -7 56 -91 67 -160 12 -76 10 -86 -49 -377 -34 -172 -52 -278 -66 -388 -2
-18 0 -30 4 -28 5 3 11 36 15 72 15 146 93 461 126 514 9 13 11 13 20 0 6 -8
15 -33 21 -55 5 -22 39 -125 74 -230 43 -131 70 -230 85 -320 32 -196 68 -362
84 -394 9 -16 29 -34 47 -40 60 -21 96 24 139 169 12 41 55 176 97 300 88 265
164 530 188 655 10 50 21 96 25 104 16 30 125 -203 165 -351 13 -50 27 -93 30
-97 4 -3 4 5 1 19 -3 14 -20 93 -37 175 -33 163 -68 309 -101 423 -19 64 -20
79 -9 142 12 76 38 140 56 140 30 0 80 -97 149 -290 35 -96 74 -189 62 -148
-37 130 -123 421 -142 481 -13 43 -24 91 -24 108 0 33 19 38 43 12 23 -26 129
-219 203 -371 36 -73 68 -132 70 -130 6 6 -153 386 -206 493 -28 55 -50 103
-50 108 0 21 36 -1 124 -74 108 -90 145 -132 290 -327 54 -72 100 -132 103
-132 3 0 -1 9 -8 20 -8 11 -36 52 -64 92 -27 40 -108 156 -178 258 -71 101
-133 194 -137 206 -11 29 17 74 92 146 106 102 173 127 252 94 19 -8 44 -24
55 -35 25 -25 25 -24 6 22 -10 24 -15 70 -15 137 l0 102 -71 -65 c-39 -36
-109 -87 -156 -113 -46 -27 -111 -66 -144 -86 -32 -21 -59 -34 -59 -30 1 13
95 110 162 166 175 145 403 253 718 339 30 9 47 16 38 16 -23 1 -263 -61 -363
-94 -104 -34 -287 -124 -350 -172 -76 -58 -43 -19 40 46 87 70 158 111 268
158 63 26 73 33 43 28 -86 -14 -246 -92 -333 -161 -23 -19 -44 -34 -48 -34
-24 0 94 133 163 184 26 19 81 52 122 75 84 46 86 51 8 20 -80 -31 -166 -77
-234 -125 -63 -45 -194 -176 -194 -194 0 -6 -4 -10 -9 -10 -13 0 3 60 30 117
34 72 113 143 210 190 134 65 215 90 435 133 114 22 218 47 231 56 24 15 24
15 13 -5 -14 -27 -6 -26 32 0 33 24 45 20 29 -9 -19 -35 -12 -34 27 4 52 51
88 68 157 74 49 4 62 9 70 27 5 12 18 24 30 28 42 12 231 17 275 7 74 -18 57
-5 -30 22 -53 17 -125 30 -204 36 -132 11 -139 13 -206 43 -25 11 -61 25 -80
32 l-35 13 50 7 c60 10 288 0 368 -15 32 -6 64 -9 70 -7 7 2 -28 12 -78 22
-64 12 -169 19 -365 25 -298 8 -361 17 -498 70 -74 28 -212 126 -212 150 0 20
53 20 387 1 396 -23 962 -45 969 -38 3 3 -75 8 -173 11 -727 28 -1039 60
-1180 122 -91 41 -63 49 163 49 107 0 191 1 187 2 -5 1 -62 11 -128 23 -167
29 -225 42 -225 52 0 16 177 7 438 -23 202 -23 288 -29 353 -25 107 8 217 29
300 56 81 27 235 103 274 136 l30 25 -58 -26 c-77 -34 -224 -72 -344 -90 -271
-41 -788 7 -871 81 l-27 24 23 20 c39 32 80 34 194 6 57 -13 128 -34 156 -44
29 -11 52 -18 52 -16 0 2 -18 16 -40 30 -22 15 -39 28 -37 30 2 2 25 -4 52
-12 113 -36 392 -29 685 16 69 11 154 24 190 29 52 8 37 9 -80 5 -138 -5 -398
-27 -465 -40 -21 -4 -35 -1 -44 10 -11 13 -5 17 40 30 29 9 58 16 65 16 33 0
410 138 401 147 -2 1 -73 -17 -159 -42 -85 -24 -208 -55 -272 -70 -109 -24
-124 -25 -214 -15 -145 16 -139 30 13 30 73 0 159 7 196 14 135 29 318 120
544 272 149 100 206 152 75 67 -151 -97 -230 -138 -358 -189 -122 -48 -172
-62 -172 -47 0 41 484 381 767 539 23 14 86 47 140 74 54 28 94 50 89 50 -5 0
-67 -20 -138 -45 -71 -25 -132 -45 -136 -45 -12 0 54 62 97 91 25 16 43 29 40
29 -28 -1 -316 -106 -358 -131 -18 -11 -36 -18 -38 -15 -8 7 241 188 336 246
47 27 82 50 78 50 -3 0 -55 -17 -114 -39 -115 -41 -253 -106 -303 -142 -59
-45 -35 -12 50 66 48 44 86 82 84 84 -2 2 -65 -28 -141 -65 -76 -38 -142 -70
-148 -73 -19 -7 61 71 120 118 76 61 163 113 267 163 46 22 71 38 56 35 -48
-7 -30 10 29 29 88 28 47 27 -58 -1 -96 -25 -159 -32 -159 -16 0 5 26 26 58
47 81 54 82 56 16 29 -75 -31 -94 -32 -94 -3 0 14 21 42 58 77 51 49 292 233
400 305 72 49 40 39 -79 -26 -149 -80 -319 -161 -325 -155 -5 5 48 45 167 127
73 50 132 96 109 84 -8 -5 -69 -44 -135 -88 -229 -152 -464 -286 -502 -286
-64 0 103 162 395 384 88 68 111 88 100 86 -2 -1 -46 -33 -98 -71z m-4256
-946 c33 -20 62 -37 64 -39 2 -1 -6 -20 -17 -43 -28 -54 -28 -147 -1 -200 25
-50 103 -118 149 -131 47 -13 122 -13 158 1 39 14 81 56 105 104 11 22 22 41
23 43 1 1 39 -18 84 -43 l81 -46 -16 -32 c-29 -54 -121 -142 -181 -172 -76
-38 -212 -47 -294 -20 -121 40 -217 130 -259 242 -33 85 -45 187 -31 253 12
60 44 120 62 120 6 0 39 -17 73 -37z m3428 -68 c31 -101 30 -241 -1 -313 -40
-90 -146 -165 -269 -191 -103 -22 -188 -7 -264 46 -49 33 -125 130 -112 142
27 24 166 111 152 94 -24 -27 -23 -38 10 -69 61 -59 143 -70 228 -30 56 26 87
59 105 113 14 42 6 124 -17 178 -13 31 -13 40 -2 46 7 4 38 26 68 48 65 48 69
46 102 -64z m-1656 -279 c56 -15 117 -52 203 -125 45 -38 63 -63 102 -146 64
-136 111 -263 138 -367 19 -74 72 -408 70 -442 0 -6 -10 17 -23 50 -12 34 -34
75 -47 92 -27 33 -87 77 -95 70 -7 -7 14 -54 46 -103 35 -52 46 -83 69 -185
26 -116 38 -215 52 -410 12 -181 9 -224 -27 -409 -34 -169 -46 -208 -124 -406
-71 -178 -113 -343 -130 -515 -15 -154 -120 -627 -180 -810 -64 -194 -146
-423 -162 -455 -9 -17 -25 -38 -35 -48 -19 -16 -20 -16 -35 0 -22 24 -32 67
-68 288 -17 104 -34 193 -36 197 -22 35 -123 353 -154 483 -88 367 -137 543
-169 599 -18 30 -77 119 -133 197 -109 154 -157 246 -164 312 -5 41 -4 41 19
-21 33 -85 68 -135 147 -212 145 -141 206 -241 260 -426 46 -160 75 -259 130
-439 64 -214 91 -321 150 -615 44 -214 49 -232 60 -205 55 142 179 513 189
565 23 122 54 265 77 360 40 164 84 368 99 458 8 48 17 104 21 124 13 71 -4
38 -44 -89 -71 -226 -93 -311 -157 -626 -19 -92 -48 -220 -65 -285 -79 -300
-127 -297 -195 11 -64 289 -175 706 -232 867 -15 41 -51 112 -80 157 -52 79
-93 175 -93 215 0 32 -39 97 -103 171 -103 119 -123 148 -176 253 -95 191
-117 291 -87 399 15 56 79 208 102 243 26 40 9 35 -43 -12 -59 -53 -118 -159
-128 -229 -6 -37 -13 -51 -29 -56 -25 -10 -99 10 -171 46 -56 28 -51 22 53
-67 41 -34 82 -77 93 -94 19 -32 25 -71 11 -80 -4 -2 -68 32 -142 76 -74 44
-148 88 -165 98 -96 56 -272 165 -285 177 -13 12 -9 13 30 7 114 -16 191 -49
305 -133 71 -53 48 -28 -57 61 -62 52 -93 106 -84 144 10 38 83 112 161 163
73 48 111 63 208 82 44 8 69 20 97 45 64 58 72 97 79 359 4 156 10 237 18 252
18 31 67 63 107 70 28 4 36 1 46 -16 14 -27 -5 -106 -49 -205 -38 -83 -60
-207 -67 -376 -4 -96 -10 -136 -26 -171 -18 -42 -19 -50 -6 -75 19 -40 52 -34
106 19 54 52 163 202 234 323 51 86 168 215 155 169 -8 -26 -27 -145 -27 -169
0 -42 12 -3 35 115 33 170 51 224 86 263 53 62 166 84 237 47 48 -25 77 -56
210 -232 106 -139 138 -169 184 -169 17 0 18 2 8 15 -18 22 2 44 24 26 12 -10
14 -6 10 26 -28 267 -30 270 -110 308 -33 15 -72 37 -89 48 l-29 21 17 -24
c40 -58 2 -70 -39 -12 -45 60 -46 60 -18 -1 22 -49 50 -185 39 -195 -1 -2 -19
26 -39 61 -41 74 -129 160 -182 177 -49 16 -115 6 -176 -27 -61 -33 -93 -73
-110 -137 -14 -55 -77 -134 -96 -122 -7 4 -12 30 -12 61 0 65 -12 100 -40 115
-41 22 -76 3 -140 -76 -51 -62 -60 -80 -60 -113 0 -22 -4 -51 -10 -65 l-9 -25
32 19 c36 23 77 26 95 8 22 -22 14 -91 -16 -139 -32 -49 -105 -119 -125 -119
-39 1 -77 63 -77 126 0 63 41 208 81 289 41 82 167 268 228 337 84 93 243 179
396 213 79 17 91 17 151 1z m728 -875 c12 -19 210 -124 277 -147 44 -15 87
-38 110 -59 22 -20 53 -37 76 -41 21 -3 54 -9 73 -13 l35 -7 -42 -22 c-53 -27
-139 -82 -130 -82 4 0 55 14 114 30 103 29 193 39 193 22 0 -5 -42 -32 -92
-60 -102 -57 -98 -65 13 -27 40 13 75 23 77 21 2 -2 -18 -14 -43 -27 -67 -33
-66 -43 0 -13 71 33 135 43 135 22 0 -16 -23 -39 -57 -57 -12 -6 -102 -24
-200 -41 -194 -33 -331 -67 -435 -106 -69 -26 -173 -88 -197 -117 -15 -19 -31
-22 -31 -7 0 18 83 101 146 146 34 24 99 62 145 84 95 45 95 51 -1 16 -90 -32
-166 -71 -227 -117 -56 -42 -73 -48 -73 -24 0 21 68 87 135 131 30 20 55 39
55 41 0 7 -76 -28 -122 -57 -27 -16 -48 -27 -48 -25 0 3 14 27 31 55 17 28 29
54 26 57 -3 3 -30 -9 -60 -26 -52 -30 -70 -32 -62 -8 2 7 9 98 15 202 11 194
22 255 44 255 19 0 76 -40 196 -138 l105 -86 -74 85 c-41 46 -88 99 -105 117
-16 17 -25 32 -19 32 7 0 14 -4 17 -9z"/>
</g>
</svg>
